<svg width="16" height="19" viewBox="0 0 16 19" fill="none" xmlns="http://www.w3.org/2000/svg">
<path d="M13.4117 15.0307C13.0122 15.0307 12.6568 14.8908 12.3014 14.6572C11.3687 14.0038 10.747 12.557 8.30442 10.5967C8.6153 13.9106 9.59246 15.1239 9.63661 16.3376C9.63661 17.5044 8.97033 18.4378 7.68265 18.4378C6.39497 18.4378 5.72869 17.5044 5.72869 16.3376C5.77321 15.1239 6.66134 13.8638 7.01674 10.5967C4.5742 12.557 3.99695 14.0038 3.0643 14.6572C2.70891 14.8904 2.35387 15.0307 1.95396 15.0307C0.932646 15.0307 0 14.0506 0 12.7437C0 12.0435 0.444065 11.5301 1.11034 11.157C2.13166 10.5967 3.4197 10.9234 6.52852 9.47663C3.4197 8.02982 2.13166 8.35653 1.11034 7.79629C0.444065 7.4228 0.044516 6.90973 0.044516 6.20952C0.044516 4.90268 0.932646 3.92255 1.95432 3.92255C2.35387 3.92255 2.70927 4.06251 3.06467 4.29604C3.99731 4.94946 4.57456 6.39627 7.0171 8.35653C6.66171 5.08943 5.77357 3.82936 5.72906 2.6157C5.72906 1.44882 6.35082 0.562256 7.68302 0.562256C9.01521 0.562256 9.63698 1.44921 9.63698 2.6157C9.59246 3.82936 8.61566 5.04264 8.30478 8.35653C10.7473 6.39627 11.3691 4.94946 12.3017 4.29604C12.6571 4.06289 13.0122 3.92255 13.4121 3.92255C14.4334 3.92255 15.3219 4.90268 15.3219 6.20952C15.3219 6.90973 14.9223 7.42318 14.2561 7.79629C13.2347 8.35653 11.9467 8.02982 8.83788 9.47663C11.9467 10.9234 13.2347 10.5967 14.2561 11.157C14.9223 11.5305 15.3219 12.0439 15.3219 12.7437C15.3219 14.0506 14.4338 15.0307 13.4121 15.0307H13.4117Z" fill="#242424"/>
</svg>
